<!-- Generated by IcoMoon.io -->
<svg version="1.1" xmlns="http://www.w3.org/2000/svg" width="512" height="512" viewBox="0 0 512 512">
<title></title>
<g id="icomoon-ignore">
</g>
<path d="M336 448h-160c-8.836 0-16-7.163-16-16v-176h-64c-6.471 0-12.306-3.898-14.782-9.877-2.477-5.979-1.107-12.861 3.468-17.437l160-160c6.249-6.248 16.379-6.248 22.627 0l160 160c4.576 4.576 5.945 11.458 3.469 17.437s-8.31 9.877-14.782 9.877h-64v176c0 8.837-7.163 16-16 16zM192 416h128v-176c0-8.836 7.163-16 16-16h41.372l-121.372-121.373-121.372 121.373h41.372c8.836 0 16 7.164 16 16v176z"></path>
</svg>
